<?xml version="1.0" encoding="UTF-8"?>
<svg xmlns="http://www.w3.org/2000/svg" xmlns:xlink="http://www.w3.org/1999/xlink" width="25pt" height="25pt" viewBox="0 0 25 25" version="1.1">
<g id="surface1">
<path style=" stroke:none;fill-rule:nonzero;fill:rgb(3.529412%,18.039216%,12.54902%);fill-opacity:1;" d="M 2.734375 0 L 22.265625 0 C 23.777344 0 25 1.222656 25 2.734375 L 25 22.265625 C 25 23.777344 23.777344 25 22.265625 25 L 2.734375 25 C 1.222656 25 0 23.777344 0 22.265625 L 0 2.734375 C 0 1.222656 1.222656 0 2.734375 0 Z M 2.734375 0 "/>
<path style=" stroke:none;fill-rule:nonzero;fill:rgb(100%,100%,99.215686%);fill-opacity:1;" d="M 18.199219 9.199219 L 18.199219 15.667969 C 18.199219 17.894531 18.039062 18.964844 17.546875 19.886719 C 17.097656 20.777344 16.496094 21.335938 15.265625 21.953125 L 12.675781 20.722656 C 13.90625 20.140625 14.503906 19.632812 14.886719 18.855469 C 15.285156 18.058594 15.410156 17.132812 15.410156 14.707031 L 15.410156 9.199219 Z M 13.761719 4.890625 L 13.761719 17.804688 C 12.332031 18.074219 11.28125 18.183594 10.140625 18.183594 C 6.734375 18.183594 4.957031 16.644531 4.957031 13.691406 C 4.957031 10.847656 6.84375 9 9.757812 9 C 10.210938 9 10.554688 9.035156 10.972656 9.144531 L 10.972656 4.890625 Z M 10.03125 11.246094 C 8.617188 11.246094 7.800781 12.117188 7.800781 13.636719 C 7.800781 15.125 8.582031 15.9375 10.011719 15.9375 C 10.320312 15.9375 10.574219 15.921875 10.972656 15.867188 L 10.972656 11.390625 C 10.648438 11.28125 10.375 11.246094 10.03125 11.246094 Z M 18.199219 4.90625 L 18.199219 7.769531 L 15.410156 7.769531 L 15.410156 4.90625 Z M 18.199219 4.90625 "/>
</g>
</svg>
