<?xml version="1.0" encoding="UTF-8"?>
<svg xmlns="http://www.w3.org/2000/svg" xmlns:xlink="http://www.w3.org/1999/xlink" width="25pt" height="25pt" viewBox="0 0 25 25" version="1.1">
<g id="surface1">
<rect x="0" y="0" width="25" height="25" style="fill:rgb(96.862745%,87.45098%,11.764706%);fill-opacity:1;stroke:none;"/>
<path style=" stroke:none;fill-rule:nonzero;fill:rgb(0%,0%,0%);fill-opacity:1;" d="M 6.574219 20.890625 L 8.488281 19.734375 C 8.855469 20.386719 9.191406 20.941406 9.996094 20.941406 C 10.769531 20.941406 11.253906 20.640625 11.253906 19.464844 L 11.253906 11.476562 L 13.605469 11.476562 L 13.605469 19.5 C 13.605469 21.933594 12.179688 23.039062 10.097656 23.039062 C 8.21875 23.039062 7.128906 22.066406 6.574219 20.890625 "/>
<path style=" stroke:none;fill-rule:nonzero;fill:rgb(0%,0%,0%);fill-opacity:1;" d="M 14.882812 20.640625 L 16.792969 19.53125 C 17.296875 20.355469 17.953125 20.957031 19.109375 20.957031 C 20.082031 20.957031 20.703125 20.472656 20.703125 19.800781 C 20.703125 18.996094 20.066406 18.710938 18.992188 18.242188 L 18.40625 17.988281 C 16.710938 17.265625 15.585938 16.359375 15.585938 14.449219 C 15.585938 12.6875 16.929688 11.34375 19.027344 11.34375 C 20.519531 11.34375 21.59375 11.863281 22.367188 13.222656 L 20.535156 14.398438 C 20.132812 13.675781 19.695312 13.390625 19.027344 13.390625 C 18.339844 13.390625 17.902344 13.828125 17.902344 14.398438 C 17.902344 15.101562 18.339844 15.386719 19.34375 15.824219 L 19.933594 16.074219 C 21.929688 16.929688 23.054688 17.804688 23.054688 19.765625 C 23.054688 21.882812 21.390625 23.039062 19.160156 23.039062 C 16.980469 23.039062 15.570312 22 14.882812 20.640625 "/>
</g>
</svg>
