<?xml version="1.0" encoding="UTF-8"?>
<svg xmlns="http://www.w3.org/2000/svg" xmlns:xlink="http://www.w3.org/1999/xlink" width="25pt" height="25pt" viewBox="0 0 25 25" version="1.1">
<g id="surface1">
<path style=" stroke:none;fill-rule:nonzero;fill:rgb(0%,0%,0%);fill-opacity:1;" d="M 11.679688 0.0078125 C 11.628906 0.0117188 11.457031 0.0273438 11.300781 0.0390625 C 7.75 0.359375 4.425781 2.277344 2.320312 5.222656 C 1.144531 6.859375 0.394531 8.714844 0.113281 10.683594 C 0.0117188 11.367188 0 11.570312 0 12.503906 C 0 13.433594 0.0117188 13.636719 0.113281 14.324219 C 0.792969 19.015625 4.132812 22.960938 8.664062 24.421875 C 9.472656 24.683594 10.328125 24.863281 11.300781 24.96875 C 11.679688 25.011719 13.320312 25.011719 13.699219 24.96875 C 15.375 24.78125 16.796875 24.367188 18.203125 23.652344 C 18.417969 23.542969 18.457031 23.511719 18.429688 23.488281 C 18.410156 23.472656 17.492188 22.246094 16.394531 20.757812 L 14.394531 18.058594 L 11.890625 14.351562 C 10.511719 12.3125 9.375 10.648438 9.367188 10.648438 C 9.355469 10.644531 9.347656 12.292969 9.34375 14.304688 C 9.335938 17.824219 9.332031 17.964844 9.289062 18.050781 C 9.226562 18.167969 9.175781 18.21875 9.074219 18.269531 C 8.996094 18.308594 8.925781 18.316406 8.558594 18.316406 L 8.136719 18.316406 L 8.023438 18.246094 C 7.949219 18.199219 7.894531 18.140625 7.859375 18.070312 L 7.808594 17.957031 L 7.8125 13.058594 L 7.820312 8.15625 L 7.894531 8.0625 C 7.933594 8.011719 8.019531 7.945312 8.078125 7.914062 C 8.175781 7.863281 8.214844 7.859375 8.640625 7.859375 C 9.136719 7.859375 9.21875 7.878906 9.351562 8.019531 C 9.386719 8.058594 10.742188 10.101562 12.367188 12.5625 C 13.988281 15.023438 16.207031 18.382812 17.296875 20.03125 L 19.277344 23.03125 L 19.375 22.964844 C 20.265625 22.386719 21.203125 21.566406 21.945312 20.710938 C 23.527344 18.898438 24.546875 16.683594 24.886719 14.324219 C 24.988281 13.636719 25 13.433594 25 12.503906 C 25 11.570312 24.988281 11.367188 24.886719 10.683594 C 24.207031 5.988281 20.867188 2.042969 16.335938 0.582031 C 15.539062 0.324219 14.6875 0.144531 13.734375 0.0390625 C 13.5 0.015625 11.882812 -0.0117188 11.679688 0.0078125 Z M 16.796875 7.566406 C 16.914062 7.625 17.011719 7.738281 17.046875 7.855469 C 17.066406 7.917969 17.070312 9.277344 17.066406 12.339844 L 17.058594 16.730469 L 16.28125 15.542969 L 15.507812 14.355469 L 15.507812 11.164062 C 15.507812 9.097656 15.515625 7.9375 15.53125 7.882812 C 15.570312 7.746094 15.65625 7.636719 15.773438 7.574219 C 15.871094 7.523438 15.910156 7.519531 16.292969 7.519531 C 16.65625 7.519531 16.71875 7.523438 16.796875 7.566406 Z M 16.796875 7.566406 "/>
</g>
</svg>
