<?xml version="1.0" encoding="UTF-8"?>
<svg xmlns="http://www.w3.org/2000/svg" xmlns:xlink="http://www.w3.org/1999/xlink" width="25pt" height="24pt" viewBox="0 0 25 24" version="1.1">
<defs>
<linearGradient id="linear0" gradientUnits="userSpaceOnUse" x1="0.129594" y1="0.120394" x2="0.796388" y2="0.782009" gradientTransform="matrix(18.484375,0,0,17.863281,0.015625,0.0078125)">
<stop offset="0" style="stop-color:rgb(21.960784%,49.411765%,72.156863%);stop-opacity:1;"/>
<stop offset="1" style="stop-color:rgb(21.176471%,41.176471%,58.039216%);stop-opacity:1;"/>
</linearGradient>
<linearGradient id="linear1" gradientUnits="userSpaceOnUse" x1="0.191275" y1="0.205792" x2="0.907415" y2="0.88429" gradientTransform="matrix(18.484375,0,0,17.863281,6.46875,6.054688)">
<stop offset="0" style="stop-color:rgb(100%,87.843137%,32.156863%);stop-opacity:1;"/>
<stop offset="1" style="stop-color:rgb(100%,76.470588%,19.215686%);stop-opacity:1;"/>
</linearGradient>
</defs>
<g id="surface1">
<path style=" stroke:none;fill-rule:nonzero;fill:url(#linear0);" d="M 12.394531 0.0078125 C 6.0625 0.0078125 6.457031 2.652344 6.457031 2.652344 L 6.464844 5.394531 L 12.507812 5.394531 L 12.507812 6.21875 L 4.066406 6.21875 C 4.066406 6.21875 0.015625 5.773438 0.015625 11.929688 C 0.015625 18.089844 3.550781 17.871094 3.550781 17.871094 L 5.660156 17.871094 L 5.660156 15.011719 C 5.660156 15.011719 5.546875 11.605469 9.140625 11.605469 L 15.132812 11.605469 C 15.132812 11.605469 18.5 11.65625 18.5 8.46875 L 18.5 3.195312 C 18.5 3.195312 19.011719 0.0078125 12.394531 0.0078125 Z M 9.0625 1.851562 C 9.664062 1.851562 10.148438 2.320312 10.148438 2.898438 C 10.148438 3.476562 9.664062 3.945312 9.0625 3.945312 C 8.460938 3.945312 7.976562 3.476562 7.976562 2.898438 C 7.976562 2.320312 8.460938 1.851562 9.0625 1.851562 Z M 9.0625 1.851562 "/>
<path style=" stroke:none;fill-rule:nonzero;fill:url(#linear1);" d="M 12.574219 23.917969 C 18.90625 23.917969 18.511719 21.273438 18.511719 21.273438 L 18.503906 18.53125 L 12.460938 18.53125 L 12.460938 17.707031 L 20.902344 17.707031 C 20.902344 17.707031 24.953125 18.148438 24.953125 11.992188 C 24.953125 5.835938 21.417969 6.054688 21.417969 6.054688 L 19.308594 6.054688 L 19.308594 8.910156 C 19.308594 8.910156 19.421875 12.320312 15.828125 12.320312 L 9.835938 12.320312 C 9.835938 12.320312 6.46875 12.265625 6.46875 15.457031 L 6.46875 20.726562 C 6.46875 20.726562 5.957031 23.917969 12.574219 23.917969 Z M 15.90625 22.074219 C 15.304688 22.074219 14.820312 21.605469 14.820312 21.027344 C 14.820312 20.449219 15.304688 19.980469 15.90625 19.980469 C 16.507812 19.980469 16.992188 20.449219 16.992188 21.027344 C 16.992188 21.605469 16.507812 22.074219 15.90625 22.074219 Z M 15.90625 22.074219 "/>
</g>
</svg>
