<?xml version="1.0" encoding="UTF-8"?>
<svg xmlns="http://www.w3.org/2000/svg" xmlns:xlink="http://www.w3.org/1999/xlink" width="24pt" height="22pt" viewBox="0 0 24 22" version="1.1">
<g id="surface1">
<path style=" stroke:none;fill-rule:nonzero;fill:rgb(0%,84.705882%,100%);fill-opacity:1;" d="M 19.734375 7.125 C 19.484375 7.035156 19.226562 6.953125 18.960938 6.871094 C 19.003906 6.6875 19.042969 6.507812 19.078125 6.332031 C 19.664062 3.410156 19.28125 1.054688 17.976562 0.28125 C 16.722656 -0.464844 14.675781 0.3125 12.609375 2.164062 C 12.410156 2.34375 12.210938 2.53125 12.011719 2.726562 C 11.878906 2.597656 11.746094 2.472656 11.613281 2.351562 C 9.445312 0.371094 7.273438 -0.464844 5.96875 0.3125 C 4.71875 1.058594 4.347656 3.269531 4.875 6.039062 C 4.925781 6.308594 4.984375 6.578125 5.050781 6.859375 C 4.746094 6.949219 4.449219 7.042969 4.164062 7.144531 C 1.621094 8.058594 0 9.484375 0 10.96875 C 0 12.5 1.742188 14.035156 4.386719 14.964844 C 4.597656 15.039062 4.8125 15.109375 5.039062 15.175781 C 4.964844 15.472656 4.902344 15.769531 4.847656 16.054688 C 4.347656 18.777344 4.738281 20.9375 5.988281 21.679688 C 7.273438 22.441406 9.4375 21.65625 11.542969 19.761719 C 11.710938 19.613281 11.875 19.453125 12.042969 19.289062 C 12.261719 19.503906 12.476562 19.707031 12.691406 19.898438 C 14.734375 21.703125 16.746094 22.433594 17.992188 21.691406 C 19.28125 20.921875 19.699219 18.601562 19.15625 15.777344 C 19.113281 15.5625 19.066406 15.34375 19.011719 15.117188 C 19.164062 15.070312 19.3125 15.023438 19.457031 14.972656 C 22.210938 14.035156 24 12.519531 24 10.96875 C 24 9.480469 22.324219 8.042969 19.734375 7.125 Z M 19.136719 13.972656 C 19.003906 14.015625 18.871094 14.0625 18.734375 14.101562 C 18.429688 13.113281 18.019531 12.058594 17.519531 10.972656 C 17.996094 9.910156 18.390625 8.871094 18.6875 7.890625 C 18.929688 7.960938 19.167969 8.039062 19.398438 8.121094 C 21.621094 8.90625 22.976562 10.070312 22.976562 10.96875 C 22.976562 11.921875 21.511719 13.164062 19.136719 13.972656 Z M 18.148438 15.984375 C 18.390625 17.230469 18.425781 18.359375 18.265625 19.242188 C 18.121094 20.035156 17.835938 20.566406 17.480469 20.777344 C 16.722656 21.226562 15.105469 20.640625 13.363281 19.097656 C 13.160156 18.917969 12.960938 18.730469 12.757812 18.53125 C 13.433594 17.769531 14.109375 16.882812 14.769531 15.902344 C 15.929688 15.796875 17.027344 15.621094 18.019531 15.386719 C 18.070312 15.589844 18.113281 15.789062 18.148438 15.984375 Z M 8.183594 20.699219 C 7.441406 20.96875 6.855469 20.976562 6.5 20.765625 C 5.742188 20.316406 5.425781 18.578125 5.855469 16.253906 C 5.90625 15.984375 5.964844 15.710938 6.03125 15.433594 C 7.015625 15.65625 8.101562 15.816406 9.265625 15.914062 C 9.929688 16.875 10.625 17.761719 11.324219 18.535156 C 11.171875 18.6875 11.019531 18.832031 10.867188 18.96875 C 9.9375 19.804688 9.003906 20.398438 8.183594 20.699219 Z M 4.71875 13.96875 C 3.550781 13.554688 2.582031 13.019531 1.921875 12.4375 C 1.324219 11.910156 1.023438 11.390625 1.023438 10.96875 C 1.023438 10.070312 2.328125 8.921875 4.5 8.140625 C 4.765625 8.046875 5.039062 7.957031 5.328125 7.875 C 5.628906 8.878906 6.023438 9.929688 6.496094 10.992188 C 6.015625 12.074219 5.617188 13.140625 5.3125 14.15625 C 5.109375 14.097656 4.910156 14.035156 4.71875 13.96875 Z M 5.878906 5.835938 C 5.429688 3.464844 5.730469 1.675781 6.484375 1.226562 C 7.285156 0.746094 9.0625 1.429688 10.933594 3.140625 C 11.050781 3.25 11.171875 3.363281 11.292969 3.480469 C 10.59375 4.25 9.90625 5.128906 9.25 6.085938 C 8.121094 6.191406 7.039062 6.367188 6.046875 6.597656 C 5.984375 6.339844 5.929688 6.085938 5.878906 5.835938 Z M 16.234375 8.46875 C 15.996094 8.046875 15.75 7.632812 15.503906 7.230469 C 16.269531 7.332031 17.003906 7.464844 17.691406 7.625 C 17.484375 8.308594 17.226562 9.023438 16.921875 9.753906 C 16.707031 9.328125 16.476562 8.898438 16.234375 8.46875 Z M 12.011719 4.234375 C 12.484375 4.761719 12.957031 5.351562 13.421875 5.988281 C 12.953125 5.96875 12.480469 5.957031 12 5.957031 C 11.523438 5.957031 11.054688 5.96875 10.585938 5.988281 C 11.054688 5.355469 11.53125 4.769531 12.011719 4.234375 Z M 7.761719 8.476562 C 7.527344 8.898438 7.300781 9.324219 7.085938 9.753906 C 6.785156 9.023438 6.53125 8.308594 6.324219 7.613281 C 7.007812 7.457031 7.738281 7.328125 8.5 7.230469 C 8.246094 7.636719 8 8.050781 7.761719 8.476562 Z M 8.519531 14.78125 C 7.734375 14.691406 6.992188 14.566406 6.308594 14.414062 C 6.519531 13.710938 6.78125 12.980469 7.085938 12.234375 C 7.300781 12.660156 7.527344 13.089844 7.765625 13.511719 C 8.011719 13.945312 8.261719 14.367188 8.519531 14.78125 Z M 12.039062 17.773438 C 11.554688 17.234375 11.070312 16.636719 10.597656 15.996094 C 11.054688 16.015625 11.523438 16.023438 12 16.023438 C 12.488281 16.023438 12.972656 16.011719 13.449219 15.992188 C 12.980469 16.644531 12.507812 17.242188 12.039062 17.773438 Z M 16.933594 12.195312 C 17.253906 12.949219 17.523438 13.675781 17.738281 14.367188 C 17.042969 14.53125 16.292969 14.664062 15.5 14.761719 C 15.75 14.355469 15.996094 13.9375 16.238281 13.503906 C 16.480469 13.070312 16.714844 12.632812 16.933594 12.195312 Z M 15.347656 12.976562 C 14.972656 13.648438 14.589844 14.285156 14.199219 14.890625 C 13.484375 14.941406 12.75 14.96875 12 14.96875 C 11.253906 14.96875 10.527344 14.945312 9.828125 14.898438 C 9.421875 14.289062 9.027344 13.644531 8.652344 12.984375 C 8.28125 12.324219 7.941406 11.65625 7.628906 10.992188 C 7.941406 10.328125 8.28125 9.660156 8.652344 9 L 8.652344 9.003906 C 9.023438 8.339844 9.410156 7.703125 9.816406 7.09375 C 10.527344 7.039062 11.261719 7.011719 12 7.011719 C 12.742188 7.011719 13.476562 7.039062 14.1875 7.097656 C 14.585938 7.699219 14.972656 8.335938 15.347656 8.996094 C 15.722656 9.664062 16.066406 10.328125 16.378906 10.976562 C 16.070312 11.640625 15.722656 12.308594 15.347656 12.976562 Z M 17.464844 1.195312 C 18.269531 1.671875 18.582031 3.59375 18.074219 6.117188 C 18.042969 6.277344 18.007812 6.441406 17.96875 6.609375 C 16.972656 6.371094 15.890625 6.195312 14.757812 6.085938 C 14.097656 5.121094 13.414062 4.242188 12.730469 3.480469 C 12.914062 3.296875 13.097656 3.125 13.28125 2.960938 C 15.054688 1.371094 16.710938 0.746094 17.464844 1.195312 Z M 12 8.761719 C 13.183594 8.761719 14.144531 9.75 14.144531 10.96875 C 14.144531 12.1875 13.183594 13.171875 12 13.171875 C 10.816406 13.171875 9.855469 12.1875 9.855469 10.96875 C 9.855469 9.75 10.816406 8.761719 12 8.761719 Z M 12 8.761719 "/>
</g>
</svg>
