<?xml version="1.0" encoding="UTF-8"?>
<svg xmlns="http://www.w3.org/2000/svg" xmlns:xlink="http://www.w3.org/1999/xlink" width="25pt" height="24pt" viewBox="0 0 25 24" version="1.1">
<g id="surface1">
<path style=" stroke:none;fill-rule:nonzero;fill:rgb(46.27451%,29.019608%,73.72549%);fill-opacity:1;" d="M 17.324219 16.695312 C 18.246094 16.597656 18.945312 15.796875 18.914062 14.835938 C 18.882812 13.875 18.085938 13.105469 17.132812 13.105469 L 17.066406 13.105469 C 16.082031 13.136719 15.316406 13.972656 15.351562 14.964844 C 15.382812 15.445312 15.574219 15.863281 15.859375 16.148438 C 14.777344 18.296875 13.121094 19.867188 10.640625 21.179688 C 8.957031 22.078125 7.207031 22.398438 5.457031 22.175781 C 4.023438 21.980469 2.910156 21.339844 2.210938 20.285156 C 1.191406 18.714844 1.097656 17.015625 1.957031 15.316406 C 2.5625 14.097656 3.515625 13.203125 4.121094 12.753906 C 3.992188 12.335938 3.800781 11.632812 3.707031 11.121094 C -0.90625 14.484375 -0.429688 19.035156 0.96875 21.179688 C 2.019531 22.785156 4.152344 23.777344 6.503906 23.777344 C 7.140625 23.777344 7.777344 23.710938 8.414062 23.550781 C 12.488281 22.75 15.574219 20.316406 17.324219 16.695312 Z M 22.921875 12.722656 C 20.503906 9.871094 16.941406 8.300781 12.867188 8.300781 L 12.359375 8.300781 C 12.074219 7.722656 11.46875 7.339844 10.800781 7.339844 L 10.738281 7.339844 C 9.75 7.371094 8.988281 8.203125 9.019531 9.195312 C 9.050781 10.15625 9.847656 10.925781 10.800781 10.925781 L 10.863281 10.925781 C 11.5625 10.894531 12.167969 10.445312 12.421875 9.835938 L 12.996094 9.835938 C 15.414062 9.835938 17.703125 10.542969 19.773438 11.921875 C 21.363281 12.976562 22.507812 14.355469 23.144531 16.023438 C 23.683594 17.367188 23.652344 18.683594 23.082031 19.804688 C 22.191406 21.5 20.695312 22.429688 18.722656 22.429688 C 17.449219 22.429688 16.242188 22.046875 15.605469 21.757812 C 15.253906 22.078125 14.617188 22.589844 14.171875 22.910156 C 15.539062 23.550781 16.941406 23.90625 18.277344 23.90625 C 21.332031 23.90625 23.589844 22.207031 24.449219 20.507812 C 25.371094 18.648438 25.308594 15.445312 22.921875 12.722656 Z M 6.761719 17.238281 C 6.792969 18.199219 7.585938 18.96875 8.542969 18.96875 L 8.605469 18.96875 C 9.589844 18.9375 10.355469 18.105469 10.324219 17.113281 C 10.292969 16.148438 9.496094 15.382812 8.542969 15.382812 L 8.476562 15.382812 C 8.414062 15.382812 8.320312 15.382812 8.253906 15.414062 C 6.949219 13.234375 6.410156 10.863281 6.601562 8.300781 C 6.726562 6.375 7.363281 4.710938 8.476562 3.332031 C 9.402344 2.148438 11.183594 1.570312 12.390625 1.539062 C 15.761719 1.472656 17.195312 5.703125 17.289062 7.402344 C 17.703125 7.5 18.402344 7.722656 18.882812 7.882812 C 18.5 2.691406 15.316406 0 12.265625 0 C 9.402344 0 6.761719 2.082031 5.710938 5.160156 C 4.246094 9.261719 5.203125 13.203125 6.984375 16.308594 C 6.824219 16.535156 6.726562 16.886719 6.761719 17.238281 Z M 6.761719 17.238281 "/>
</g>
</svg>
