<?xml version="1.0" encoding="UTF-8"?>
<svg xmlns="http://www.w3.org/2000/svg" xmlns:xlink="http://www.w3.org/1999/xlink" width="24pt" height="15pt" viewBox="0 0 24 15" version="1.1">
<defs>
<linearGradient id="linear0" gradientUnits="userSpaceOnUse" x1="-0.0277778" y1="0.32" x2="1" y2="0.675556" gradientTransform="matrix(24,0,0,14.960938,0,0)">
<stop offset="0" style="stop-color:rgb(13.333333%,59.607843%,74.117647%);stop-opacity:1;"/>
<stop offset="1" style="stop-color:rgb(5.490196%,84.313725%,70.980392%);stop-opacity:1;"/>
</linearGradient>
</defs>
<g id="surface1">
<path style=" stroke:none;fill-rule:nonzero;fill:url(#linear0);" d="M 12 0 C 8.800781 0 6.800781 1.664062 6 4.988281 C 7.199219 3.324219 8.601562 2.703125 10.199219 3.117188 C 11.113281 3.355469 11.765625 4.042969 12.488281 4.804688 C 13.664062 6.042969 15.027344 7.480469 18 7.480469 C 21.199219 7.480469 23.199219 5.816406 24 2.492188 C 22.800781 4.15625 21.398438 4.777344 19.800781 4.363281 C 18.886719 4.125 18.234375 3.4375 17.511719 2.675781 C 16.335938 1.4375 14.972656 0 12 0 Z M 6 7.480469 C 2.800781 7.480469 0.800781 9.144531 0 12.46875 C 1.199219 10.804688 2.601562 10.183594 4.199219 10.597656 C 5.113281 10.835938 5.765625 11.523438 6.488281 12.285156 C 7.664062 13.523438 9.027344 14.960938 12 14.960938 C 15.199219 14.960938 17.199219 13.296875 18 9.972656 C 16.800781 11.636719 15.398438 12.257812 13.800781 11.84375 C 12.886719 11.605469 12.234375 10.917969 11.511719 10.15625 C 10.335938 8.917969 8.972656 7.480469 6 7.480469 Z M 6 7.480469 "/>
</g>
</svg>
