<?xml version="1.0" encoding="UTF-8"?>
<svg xmlns="http://www.w3.org/2000/svg" xmlns:xlink="http://www.w3.org/1999/xlink" width="25pt" height="25pt" viewBox="0 0 25 25" version="1.1">
<g id="surface1">
<path style=" stroke:none;fill-rule:nonzero;fill:rgb(0%,47.843137%,80%);fill-opacity:1;" d="M 0 12.5 L 0 25 L 25 25 L 25 0 L 0 0 Z M 0 12.5 "/>
<path style=" stroke:none;fill-rule:nonzero;fill:rgb(100%,100%,100%);fill-opacity:1;" d="M 5.527344 12.582031 L 5.519531 13.605469 L 8.773438 13.605469 L 8.773438 22.851562 L 11.074219 22.851562 L 11.074219 13.605469 L 14.328125 13.605469 L 14.328125 12.601562 C 14.328125 12.046875 14.316406 11.582031 14.300781 11.570312 C 14.289062 11.554688 12.308594 11.546875 9.910156 11.550781 L 5.539062 11.5625 Z M 5.527344 12.582031 "/>
<path style=" stroke:none;fill-rule:nonzero;fill:rgb(100%,100%,100%);fill-opacity:1;" d="M 20.171875 11.535156 C 20.808594 11.691406 21.292969 11.972656 21.734375 12.433594 C 21.964844 12.679688 22.308594 13.128906 22.335938 13.238281 C 22.34375 13.269531 21.253906 14 20.597656 14.40625 C 20.574219 14.421875 20.476562 14.320312 20.371094 14.160156 C 20.050781 13.691406 19.710938 13.492188 19.195312 13.453125 C 18.4375 13.402344 17.949219 13.800781 17.953125 14.460938 C 17.953125 14.65625 17.980469 14.773438 18.0625 14.929688 C 18.226562 15.277344 18.539062 15.484375 19.511719 15.902344 C 21.300781 16.671875 22.066406 17.179688 22.542969 17.902344 C 23.074219 18.707031 23.191406 19.996094 22.832031 20.949219 C 22.433594 21.992188 21.449219 22.695312 20.066406 22.929688 C 19.636719 23.007812 18.621094 22.996094 18.160156 22.910156 C 17.15625 22.734375 16.203125 22.238281 15.617188 21.585938 C 15.386719 21.332031 14.9375 20.667969 14.964844 20.621094 C 14.976562 20.605469 15.082031 20.542969 15.195312 20.472656 C 15.308594 20.410156 15.726562 20.167969 16.125 19.9375 L 16.84375 19.523438 L 16.992188 19.746094 C 17.203125 20.066406 17.664062 20.507812 17.941406 20.652344 C 18.738281 21.074219 19.835938 21.015625 20.375 20.53125 C 20.605469 20.320312 20.699219 20.101562 20.699219 19.78125 C 20.699219 19.492188 20.664062 19.363281 20.515625 19.144531 C 20.320312 18.867188 19.921875 18.632812 18.796875 18.144531 C 17.503906 17.589844 16.949219 17.246094 16.441406 16.695312 C 16.148438 16.378906 15.871094 15.871094 15.753906 15.445312 C 15.660156 15.09375 15.636719 14.207031 15.710938 13.851562 C 15.976562 12.605469 16.917969 11.738281 18.277344 11.476562 C 18.714844 11.394531 19.738281 11.425781 20.171875 11.535156 Z M 20.171875 11.535156 "/>
</g>
</svg>
